<mxfile host="app.diagrams.net" agent="Mozilla/5.0 (Windows NT 10.0; Win64; x64) AppleWebKit/537.36 (KHTML, like Gecko) Chrome/130.0.0.0 Safari/537.36 Edg/130.0.0.0" version="24.8.4">
  <diagram id="C5RBs43oDa-KdzZeNtuy" name="Page-1">
    <mxGraphModel dx="1045" dy="1844" grid="1" gridSize="10" guides="1" tooltips="1" connect="1" arrows="1" fold="1" page="1" pageScale="1" pageWidth="827" pageHeight="1169" math="0" shadow="0">
      <root>
        <mxCell id="WIyWlLk6GJQsqaUBKTNV-0" />
        <mxCell id="WIyWlLk6GJQsqaUBKTNV-1" parent="WIyWlLk6GJQsqaUBKTNV-0" />
        <mxCell id="jvl8iwTHRKWooMft47pN-1" value="Google Cloud Storage&#xa;(Input)" style="rounded=1;html=1;glass=0;strokeWidth=1;shadow=0;verticalAlign=top;fontSize=31;fontStyle=1" vertex="1" parent="WIyWlLk6GJQsqaUBKTNV-1">
          <mxGeometry x="40" y="-210" width="540" height="224" as="geometry" />
        </mxCell>
        <mxCell id="WIyWlLk6GJQsqaUBKTNV-3" value="&lt;p&gt;&lt;span style=&quot;font-size: 20px;&quot;&gt;Design Intent&lt;/span&gt;&lt;/p&gt;&lt;p&gt;&lt;span style=&quot;font-size: 20px;&quot;&gt;(Window/Door Schedule)&lt;/span&gt;&lt;/p&gt;" style="rounded=1;whiteSpace=wrap;html=1;fontSize=12;glass=0;strokeWidth=1;shadow=0;" parent="WIyWlLk6GJQsqaUBKTNV-1" vertex="1">
          <mxGeometry x="320" y="-116" width="240" height="70" as="geometry" />
        </mxCell>
        <mxCell id="jvl8iwTHRKWooMft47pN-4" value="Google Vertex AI (API)&lt;div&gt;&lt;br/&gt;&lt;/div&gt;" style="rounded=1;whiteSpace=wrap;html=1;glass=0;strokeWidth=1;shadow=0;fontSize=30;fontStyle=1;verticalAlign=top;" vertex="1" parent="WIyWlLk6GJQsqaUBKTNV-1">
          <mxGeometry x="40" y="70" width="540" height="220" as="geometry" />
        </mxCell>
        <mxCell id="jvl8iwTHRKWooMft47pN-5" value="&lt;p&gt;&lt;span style=&quot;font-size: 20px;&quot;&gt;Regulatory Requirements&lt;/span&gt;&lt;/p&gt;&lt;p&gt;&lt;span style=&quot;font-size: 20px;&quot;&gt;(BCA Approved Doc &amp;amp; SCDF Fire Code)&lt;/span&gt;&lt;/p&gt;" style="rounded=1;whiteSpace=wrap;html=1;fontSize=12;glass=0;strokeWidth=1;shadow=0;" vertex="1" parent="WIyWlLk6GJQsqaUBKTNV-1">
          <mxGeometry x="60" y="-116" width="240" height="100" as="geometry" />
        </mxCell>
        <mxCell id="jvl8iwTHRKWooMft47pN-6" style="edgeStyle=none;curved=1;rounded=0;orthogonalLoop=1;jettySize=auto;html=1;exitX=0.25;exitY=1;exitDx=0;exitDy=0;fontSize=12;startSize=8;endSize=8;" edge="1" parent="WIyWlLk6GJQsqaUBKTNV-1" source="WIyWlLk6GJQsqaUBKTNV-3" target="WIyWlLk6GJQsqaUBKTNV-3">
          <mxGeometry relative="1" as="geometry" />
        </mxCell>
        <mxCell id="jvl8iwTHRKWooMft47pN-8" value="&lt;p&gt;&lt;span style=&quot;font-size: 20px;&quot;&gt;Parse&lt;/span&gt;&lt;/p&gt;" style="rounded=1;whiteSpace=wrap;html=1;fontSize=12;glass=0;strokeWidth=1;shadow=0;" vertex="1" parent="WIyWlLk6GJQsqaUBKTNV-1">
          <mxGeometry x="60" y="150" width="110" height="100" as="geometry" />
        </mxCell>
        <mxCell id="jvl8iwTHRKWooMft47pN-9" value="&lt;p&gt;&lt;span style=&quot;font-size: 20px;&quot;&gt;Clean&lt;/span&gt;&lt;/p&gt;" style="rounded=1;whiteSpace=wrap;html=1;fontSize=12;glass=0;strokeWidth=1;shadow=0;" vertex="1" parent="WIyWlLk6GJQsqaUBKTNV-1">
          <mxGeometry x="190" y="150" width="110" height="100" as="geometry" />
        </mxCell>
        <mxCell id="jvl8iwTHRKWooMft47pN-10" value="&lt;p&gt;&lt;span style=&quot;font-size: 20px;&quot;&gt;Structure&lt;/span&gt;&lt;/p&gt;" style="rounded=1;whiteSpace=wrap;html=1;fontSize=12;glass=0;strokeWidth=1;shadow=0;" vertex="1" parent="WIyWlLk6GJQsqaUBKTNV-1">
          <mxGeometry x="320" y="150" width="110" height="100" as="geometry" />
        </mxCell>
        <mxCell id="jvl8iwTHRKWooMft47pN-11" value="&lt;p&gt;&lt;span style=&quot;font-size: 20px;&quot;&gt;Export&lt;/span&gt;&lt;/p&gt;" style="rounded=1;whiteSpace=wrap;html=1;fontSize=12;glass=0;strokeWidth=1;shadow=0;" vertex="1" parent="WIyWlLk6GJQsqaUBKTNV-1">
          <mxGeometry x="450" y="150" width="110" height="100" as="geometry" />
        </mxCell>
      </root>
    </mxGraphModel>
  </diagram>
</mxfile>
